<?xml version="1.0" encoding="utf-8"?>
<!-- Generator: Adobe Illustrator 21.0.2, SVG Export Plug-In . SVG Version: 6.00 Build 0)  -->
<svg version="1.1" id="Objects" xmlns="http://www.w3.org/2000/svg" xmlns:xlink="http://www.w3.org/1999/xlink" x="0px" y="0px"
	 viewBox="0 0 405.7 462.1" style="enable-background:new 0 0 405.7 462.1;" xml:space="preserve">
<style type="text/css">
	.st0{fill:#444242;}
</style>
<path id="Screw_B" class="st0" d="M244.3,402.2h-84.1c-8.4,0-15.3-6.9-15.3-15.3c0-8.4,6.9-15.3,15.3-15.3h84.1
	c8.4,0,15.3,6.9,15.3,15.3C259.6,395.3,252.7,402.2,244.3,402.2z M160.2,378.6c-4.6,0-8.3,3.7-8.3,8.3c0,4.6,3.7,8.3,8.3,8.3h84.1
	c4.6,0,8.3-3.7,8.3-8.3c0-4.6-3.7-8.3-8.3-8.3H160.2z"/>
<rect id="Screw_C" x="183.2" y="436.5" class="st0" width="39.3" height="7"/>
<path id="Screw_A" class="st0" d="M202.3,462.1c-11.7,0-21.7-7.8-24.6-19c-15.1-2.2-26.5-15.1-26.5-30.6V409h102.2v3.5
	c0,15.4-11.4,28.4-26.5,30.6C224,454.2,214,462.1,202.3,462.1z M158.4,416c1.6,11,10.9,19.7,22.4,20.4l2.8,0.2l0.4,2.8
	c1.4,9.1,9,15.8,18.2,15.8c9.2,0,16.8-6.6,18.2-15.7l0.4-2.8l2.8-0.2c11.5-0.7,20.7-9.3,22.3-20.4H158.4z"/>
<path id="Bulb" class="st0" d="M257.5,364.6H146.4v-40.3c-10.7-18.1-23.2-36.3-36.1-52.7c-16.4-20.8-25-45.8-25-72.2
	c0-64.5,52.5-117,117.1-117c64.5,0,117,52.5,117,117c0,26.5-8.7,51.4-25.1,72.2c-11.7,14.8-25.4,34.8-36.7,53.7V364.6z M153.4,357.6
	h97.1v-34.2l0.5-0.8c11.6-19.4,25.7-40,37.7-55.3c15.4-19.5,23.6-43,23.6-67.9c0-60.7-49.4-110-110-110
	c-60.7,0-110.1,49.4-110.1,110c0,24.9,8.1,48.3,23.5,67.9c13.3,16.9,26.2,35.7,37.1,54.3l0.5,0.8V357.6z"/>
<rect id="Bulb_Wire_A" x="170.1" y="235.7" transform="matrix(0.9768 -0.214 0.214 0.9768 -59.6947 44.159)" class="st0" width="8" height="124.2"/>
<rect id="Bulb_Wire_B" x="166.6" y="295.6" transform="matrix(0.2096 -0.9778 0.9778 0.2096 -110.7178 461.3356)" class="st0" width="126.8" height="7"/>
<polygon id="Bulb_Wire_Connection" class="st0" points="196,278.9 189,252 170,264.8 167.2,260.6 192.1,244 197.1,263.1 
	209.9,231.9 220.5,262.1 239.2,253.5 241.3,258.1 217.6,268.9 209.5,245.9 "/>
<path id="Line_E" class="st0" d="M206.6,58c-1.7,0-3-1.3-3-3V3c0-1.7,1.3-3,3-3c1.7,0,3,1.3,3,3v52C209.6,56.7,208.3,58,206.6,58z"
	/>
<path id="Line_F" class="st0" d="M286.3,77.5c-0.5,0-1.1-0.1-1.6-0.4c-1.4-0.9-1.9-2.7-1-4.1l27-44.5c0.9-1.4,2.7-1.9,4.1-1
	c1.4,0.9,1.9,2.7,1,4.1l-27,44.5C288.3,77,287.3,77.5,286.3,77.5z"/>
<path id="Line_G" class="st0" d="M335.8,140.2c-1.1,0-2.1-0.6-2.7-1.6c-0.8-1.5-0.2-3.3,1.3-4l46.1-24.1c1.5-0.8,3.3-0.2,4,1.3
	c0.8,1.5,0.2,3.3-1.3,4l-46.1,24.1C336.8,140.1,336.3,140.2,335.8,140.2z"/>
<path id="Line_H" class="st0" d="M402.7,214.3c-0.1,0-0.1,0-0.2,0l-51.9-3.3c-1.7-0.1-2.9-1.5-2.8-3.2c0.1-1.7,1.5-2.9,3.2-2.8
	l51.9,3.3c1.7,0.1,2.9,1.5,2.8,3.2C405.6,213.1,404.3,214.3,402.7,214.3z"/>
<path id="Line_I" class="st0" d="M369.6,319.1c-0.6,0-1.2-0.2-1.7-0.5l-42.7-29.7c-1.4-0.9-1.7-2.8-0.7-4.2c0.9-1.4,2.8-1.7,4.2-0.7
	l42.7,29.7c1.4,0.9,1.7,2.8,0.7,4.2C371.5,318.6,370.6,319.1,369.6,319.1z"/>
<path id="Line_D" class="st0" d="M119.4,77.5c-1,0-2-0.5-2.6-1.4l-27-44.5c-0.9-1.4-0.4-3.3,1-4.1c1.4-0.9,3.3-0.4,4.1,1l27,44.5
	c0.9,1.4,0.4,3.3-1,4.1C120.5,77.3,119.9,77.5,119.4,77.5z"/>
<path id="Line_C" class="st0" d="M69.9,140.2c-0.5,0-0.9-0.1-1.4-0.3l-46.1-24.1c-1.5-0.8-2-2.6-1.3-4c0.8-1.5,2.6-2,4-1.3
	l46.1,24.1c1.5,0.8,2,2.6,1.3,4C72,139.7,71,140.2,69.9,140.2z"/>
<path id="Line_B" class="st0" d="M3,214.3c-1.6,0-2.9-1.2-3-2.8c-0.1-1.7,1.1-3.1,2.8-3.2l51.9-3.3c1.7-0.1,3.1,1.1,3.2,2.8
	c0.1,1.7-1.1,3.1-2.8,3.2l-51.9,3.3C3.1,214.3,3.1,214.3,3,214.3z"/>
<path id="Line_A" class="st0" d="M36.1,319.1c-0.9,0-1.9-0.4-2.5-1.3c-0.9-1.4-0.6-3.2,0.7-4.2l42.7-29.7c1.4-0.9,3.2-0.6,4.2,0.7
	c0.9,1.4,0.6,3.2-0.7,4.2l-42.7,29.7C37.3,318.9,36.7,319.1,36.1,319.1z"/>
</svg>
